<svg width="34" height="34" fill="none" xmlns="http://www.w3.org/2000/svg"><path d="M22.5 24.833l2.333-2.333-6.166-6.167V8.667h-3.334v9l7.167 7.166zM17 33.667c-2.306 0-4.472-.438-6.5-1.314-2.028-.874-3.792-2.061-5.292-3.561S2.521 25.528 1.647 23.5C.77 21.472.333 19.306.333 17s.438-4.472 1.314-6.5c.874-2.028 2.061-3.792 3.561-5.292S8.472 2.521 10.5 1.645C12.528.771 14.694.333 17 .333s4.472.438 6.5 1.312c2.028.876 3.792 2.063 5.292 3.563s2.687 3.264 3.561 5.292c.876 2.028 1.314 4.194 1.314 6.5s-.438 4.472-1.314 6.5c-.874 2.028-2.061 3.792-3.561 5.292s-3.264 2.687-5.292 3.561c-2.028.876-4.194 1.314-6.5 1.314zm0-3.334c3.695 0 6.84-1.298 9.438-3.895 2.597-2.597 3.895-5.743 3.895-9.438 0-3.694-1.298-6.84-3.895-9.438C23.841 4.965 20.695 3.667 17 3.667c-3.694 0-6.84 1.298-9.437 3.895C4.966 10.159 3.667 13.306 3.667 17c0 3.695 1.299 6.84 3.896 9.438 2.597 2.597 5.743 3.895 9.437 3.895z" fill="#1C1B1F"/></svg>