<svg width="40" height="40" fill="none" xmlns="http://www.w3.org/2000/svg"><mask id="a" style="mask-type:alpha" maskUnits="userSpaceOnUse" x="0" y="0" width="40" height="40"><path fill="#D9D9D9" d="M0 0h40v40H0z"/></mask><g mask="url(#a)"><path d="M10 23.375h13.125v-2.792H10v2.792zm0-5.292h20v-2.791H10v2.791zm0-5.291h20v-2.75H10v2.75zM3.333 36.667V6.125c0-.75.278-1.403.834-1.958.555-.556 1.208-.834 1.958-.834h27.75c.75 0 1.403.278 1.958.834.556.555.834 1.208.834 1.958v21.083c0 .75-.278 1.403-.834 1.959-.555.555-1.208.833-1.958.833H10l-6.667 6.667zm2.792-6.709l2.708-2.75h25.042V6.125H6.125v23.833z" fill="#1C1B1F"/></g></svg>