<svg width="40" height="40" fill="none" xmlns="http://www.w3.org/2000/svg"><mask id="a" style="mask-type:alpha" maskUnits="userSpaceOnUse" x="0" y="0" width="40" height="40"><path fill="#D9D9D9" d="M0 0h40v40H0z"/></mask><g mask="url(#a)"><path d="M20 35l-2.417-2.167c-2.805-2.527-5.125-4.708-6.958-6.541-1.833-1.834-3.292-3.48-4.375-4.939-1.083-1.457-1.84-2.797-2.27-4.02a11.196 11.196 0 01-.647-3.75c0-2.61.875-4.791 2.625-6.541s3.93-2.625 6.542-2.625c1.444 0 2.82.305 4.125.916A9.881 9.881 0 0120 7.917a9.881 9.881 0 013.375-2.584 9.615 9.615 0 014.125-.916c2.611 0 4.792.875 6.542 2.625s2.625 3.93 2.625 6.541c0 1.278-.215 2.528-.645 3.75-.431 1.223-1.189 2.563-2.272 4.02-1.083 1.46-2.542 3.105-4.375 4.939-1.833 1.833-4.153 4.014-6.958 6.541L20 35zm0-4.5c2.667-2.389 4.861-4.438 6.583-6.147 1.723-1.707 3.084-3.193 4.084-4.456 1-1.265 1.694-2.39 2.083-3.377.389-.986.583-1.964.583-2.937 0-1.666-.555-3.055-1.666-4.166-1.111-1.111-2.5-1.667-4.167-1.667a6.437 6.437 0 00-3.625 1.103c-1.111.737-1.875 1.675-2.292 2.814h-3.166c-.417-1.14-1.18-2.077-2.292-2.814A6.437 6.437 0 0012.5 7.75c-1.667 0-3.056.556-4.167 1.667-1.11 1.11-1.666 2.5-1.666 4.166 0 .973.194 1.951.583 2.937.389.987 1.083 2.112 2.083 3.377 1 1.263 2.361 2.749 4.084 4.456 1.722 1.71 3.916 3.758 6.583 6.147z" fill="#1C1B1F"/></g></svg>