<svg width="40" height="40" fill="none" xmlns="http://www.w3.org/2000/svg"><mask id="a" style="mask-type:alpha" maskUnits="userSpaceOnUse" x="0" y="0" width="40" height="40"><path fill="#D9D9D9" d="M0 0h40v40H0z"/></mask><g mask="url(#a)"><path d="M30 35H11.667V13.333L23.333 1.667l2.084 2.083c.194.194.354.458.48.792.124.333.186.652.186.958v.583l-1.833 7.25H35c.889 0 1.667.334 2.333 1 .667.667 1 1.445 1 2.334V20c0 .194-.027.403-.083.625-.056.222-.111.43-.167.625l-5 11.75c-.25.556-.666 1.028-1.25 1.417C31.25 34.806 30.64 35 30 35zm-15-3.333h15L35 20v-3.333H20L22.25 7.5 15 14.75v16.917zm-3.333-18.334v3.334h-5v15h5V35H3.333V13.333h8.334z" fill="#1C1B1F"/></g></svg>