<svg width="50" height="50" viewBox="0 0 50 50" fill="none" xmlns="http://www.w3.org/2000/svg">
<mask id="mask0_428_321" style="mask-type:alpha" maskUnits="userSpaceOnUse" x="0" y="0" width="50" height="50">
<rect width="50" height="50" fill="#D9D9D9"/>
</mask>
<g mask="url(#mask0_428_321)">
<path d="M25.0001 34.3229C28.4376 31.5451 31.0334 28.8715 32.7876 26.3021C34.5404 23.7326 35.4167 21.3195 35.4167 19.0625C35.4167 17.1181 35.0612 15.4597 34.3501 14.0875C33.6376 12.7167 32.7605 11.6056 31.7188 10.7542C30.6772 9.90417 29.5487 9.2882 28.3334 8.90626C27.1181 8.52431 26.007 8.33334 25.0001 8.33334C23.9931 8.33334 22.882 8.52431 21.6667 8.90626C20.4515 9.2882 19.323 9.90417 18.2813 10.7542C17.2397 11.6056 16.3633 12.7167 15.6522 14.0875C14.9397 15.4597 14.5834 17.1181 14.5834 19.0625C14.5834 21.3195 15.4598 23.7326 17.2126 26.3021C18.9667 28.8715 21.5626 31.5451 25.0001 34.3229ZM25.0001 39.5833C20.1042 35.9722 16.4494 32.4653 14.0355 29.0625C11.623 25.6597 10.4167 22.3264 10.4167 19.0625C10.4167 16.5972 10.8598 14.4354 11.7459 12.5771C12.6306 10.7201 13.7674 9.16667 15.1563 7.91667C16.5452 6.66667 18.1077 5.72917 19.8438 5.10417C21.5799 4.47917 23.2987 4.16667 25.0001 4.16667C26.7015 4.16667 28.4202 4.47917 30.1563 5.10417C31.8924 5.72917 33.4549 6.66667 34.8438 7.91667C36.2327 9.16667 37.3702 10.7201 38.2563 12.5771C39.1411 14.4354 39.5834 16.5972 39.5834 19.0625C39.5834 22.3264 38.3765 25.6597 35.9626 29.0625C33.5501 32.4653 29.8959 35.9722 25.0001 39.5833ZM25.0001 22.9167C26.1459 22.9167 27.1272 22.5083 27.9438 21.6917C28.7591 20.8764 29.1667 19.8958 29.1667 18.75C29.1667 17.6042 28.7591 16.6229 27.9438 15.8063C27.1272 14.991 26.1459 14.5833 25.0001 14.5833C23.8542 14.5833 22.8737 14.991 22.0584 15.8063C21.2417 16.6229 20.8334 17.6042 20.8334 18.75C20.8334 19.8958 21.2417 20.8764 22.0584 21.6917C22.8737 22.5083 23.8542 22.9167 25.0001 22.9167ZM10.4167 45.8333V41.6667H39.5834V45.8333H10.4167Z" fill="#1C1B1F"/>
</g>
</svg>
