<svg width="195" height="46" viewBox="0 0 195 46" fill="none" xmlns="http://www.w3.org/2000/svg">
<path d="M37.8591 21.6513L44.7956 21.6357L24.3811 1.22118L24.4616 8.25384L37.8591 21.6513Z" fill="#F7D247" stroke="#F7D247"/>
<path d="M8.14093 24.0261L1.20439 24.0418L21.6189 44.4563L21.5384 37.4236L8.14093 24.0261Z" fill="#D33854" stroke="#D33854"/>
<path d="M8.14093 21.6513L1.20439 21.6357L21.6189 1.22118L21.5384 8.25384L8.14093 21.6513Z" fill="#DA7736" stroke="#DA7736"/>
<path d="M37.8591 24.0261L44.7956 24.0418L24.3811 44.4563L24.4616 37.4236L37.8591 24.0261Z" fill="#56A461" stroke="#56A461"/>
<path d="M64.944 31V13.96H78.408V31H75.696V16.336H67.632V31H64.944ZM87.5678 31.24C86.5758 31.24 85.6878 31.072 84.9038 30.736C84.1198 30.384 83.4398 29.904 82.8638 29.296C82.3038 28.688 81.8718 28 81.5678 27.232C81.2638 26.448 81.1118 25.616 81.1118 24.736C81.1118 23.856 81.2638 23.024 81.5678 22.24C81.8718 21.456 82.3038 20.768 82.8638 20.176C83.4398 19.568 84.1198 19.096 84.9038 18.76C85.7038 18.408 86.5918 18.232 87.5678 18.232C88.5438 18.232 89.4238 18.408 90.2078 18.76C91.0078 19.096 91.6878 19.568 92.2478 20.176C92.8238 20.768 93.2638 21.456 93.5677 22.24C93.8718 23.024 94.0238 23.856 94.0238 24.736C94.0238 25.616 93.8718 26.448 93.5677 27.232C93.2638 28 92.8238 28.688 92.2478 29.296C91.6878 29.904 91.0078 30.384 90.2078 30.736C89.4238 31.072 88.5438 31.24 87.5678 31.24ZM83.8238 24.76C83.8238 25.56 83.9918 26.28 84.3278 26.92C84.6638 27.56 85.1118 28.064 85.6718 28.432C86.2318 28.8 86.8638 28.984 87.5678 28.984C88.2558 28.984 88.8798 28.8 89.4398 28.432C90.0158 28.048 90.4718 27.536 90.8078 26.896C91.1438 26.24 91.3118 25.52 91.3118 24.736C91.3118 23.936 91.1438 23.216 90.8078 22.576C90.4718 21.936 90.0158 21.432 89.4398 21.064C88.8798 20.68 88.2558 20.488 87.5678 20.488C86.8638 20.488 86.2318 20.68 85.6718 21.064C85.1118 21.448 84.6638 21.96 84.3278 22.6C83.9918 23.224 83.8238 23.944 83.8238 24.76ZM95.1653 34V28.672H95.4533C95.7893 28.672 96.1013 28.576 96.3893 28.384C96.6773 28.192 96.9333 27.864 97.1573 27.4C97.3813 26.92 97.5653 26.264 97.7093 25.432C97.8533 24.584 97.9413 23.52 97.9733 22.24L98.1173 18.448H107.069V28.672H108.797V34H106.469V31H97.4693V34H95.1653ZM98.9333 28.672H104.429V20.728H100.445L100.373 22.48C100.325 23.696 100.237 24.72 100.109 25.552C99.9973 26.384 99.8373 27.048 99.6293 27.544C99.4373 28.04 99.2053 28.416 98.9333 28.672ZM118.165 31.24C117.157 31.24 116.269 31 115.501 30.52C114.733 30.04 114.125 29.416 113.677 28.648V36.112H111.037V18.448H113.365V20.704C113.845 19.952 114.469 19.352 115.237 18.904C116.005 18.456 116.861 18.232 117.805 18.232C118.669 18.232 119.461 18.408 120.181 18.76C120.901 19.096 121.525 19.568 122.053 20.176C122.581 20.784 122.989 21.48 123.277 22.264C123.581 23.032 123.733 23.848 123.733 24.712C123.733 25.912 123.493 27.008 123.013 28C122.549 28.992 121.893 29.784 121.045 30.376C120.213 30.952 119.253 31.24 118.165 31.24ZM117.301 28.984C117.861 28.984 118.365 28.864 118.813 28.624C119.277 28.384 119.669 28.064 119.989 27.664C120.325 27.264 120.581 26.808 120.757 26.296C120.933 25.784 121.021 25.256 121.021 24.712C121.021 24.136 120.925 23.592 120.733 23.08C120.541 22.568 120.261 22.12 119.893 21.736C119.541 21.352 119.125 21.048 118.645 20.824C118.181 20.6 117.669 20.488 117.109 20.488C116.773 20.488 116.421 20.552 116.053 20.68C115.685 20.808 115.341 20.984 115.021 21.208C114.701 21.432 114.421 21.696 114.181 22C113.941 22.304 113.773 22.624 113.677 22.96V26.248C113.901 26.76 114.197 27.224 114.565 27.64C114.933 28.04 115.357 28.368 115.837 28.624C116.317 28.864 116.805 28.984 117.301 28.984ZM125.195 27.328C125.195 26.528 125.419 25.832 125.867 25.24C126.331 24.632 126.963 24.168 127.763 23.848C128.563 23.512 129.491 23.344 130.547 23.344C131.107 23.344 131.675 23.384 132.251 23.464C132.843 23.544 133.363 23.672 133.811 23.848V23.056C133.811 22.176 133.547 21.488 133.019 20.992C132.491 20.496 131.731 20.248 130.739 20.248C130.035 20.248 129.371 20.376 128.747 20.632C128.123 20.872 127.459 21.216 126.755 21.664L125.867 19.888C126.699 19.328 127.531 18.912 128.363 18.64C129.211 18.368 130.099 18.232 131.027 18.232C132.707 18.232 134.027 18.68 134.987 19.576C135.963 20.456 136.451 21.712 136.451 23.344V28.024C136.451 28.328 136.499 28.544 136.595 28.672C136.707 28.8 136.891 28.872 137.147 28.888V31C136.907 31.048 136.691 31.08 136.499 31.096C136.307 31.112 136.147 31.12 136.019 31.12C135.459 31.12 135.035 30.984 134.747 30.712C134.459 30.44 134.291 30.12 134.243 29.752L134.171 29.032C133.627 29.736 132.931 30.28 132.083 30.664C131.235 31.048 130.379 31.24 129.515 31.24C128.683 31.24 127.939 31.072 127.283 30.736C126.627 30.384 126.115 29.912 125.747 29.32C125.379 28.728 125.195 28.064 125.195 27.328ZM133.187 28.096C133.379 27.888 133.531 27.68 133.643 27.472C133.755 27.264 133.811 27.08 133.811 26.92V25.48C133.363 25.304 132.891 25.176 132.395 25.096C131.899 25 131.411 24.952 130.931 24.952C129.971 24.952 129.187 25.144 128.579 25.528C127.987 25.912 127.691 26.44 127.691 27.112C127.691 27.48 127.787 27.832 127.979 28.168C128.187 28.504 128.475 28.776 128.843 28.984C129.227 29.192 129.699 29.296 130.259 29.296C130.835 29.296 131.387 29.184 131.915 28.96C132.443 28.736 132.867 28.448 133.187 28.096ZM139.654 31V18.448H142.39L146.71 26.2L151.054 18.448H153.742V31H151.222V22.168L147.526 28.768H145.87L142.15 22.168V31H139.654ZM162.544 31.24C161.552 31.24 160.664 31.072 159.88 30.736C159.096 30.384 158.416 29.904 157.84 29.296C157.28 28.688 156.848 28 156.544 27.232C156.24 26.448 156.088 25.616 156.088 24.736C156.088 23.856 156.24 23.024 156.544 22.24C156.848 21.456 157.28 20.768 157.84 20.176C158.416 19.568 159.096 19.096 159.88 18.76C160.68 18.408 161.568 18.232 162.544 18.232C163.52 18.232 164.4 18.408 165.184 18.76C165.984 19.096 166.664 19.568 167.224 20.176C167.8 20.768 168.24 21.456 168.544 22.24C168.848 23.024 169 23.856 169 24.736C169 25.616 168.848 26.448 168.544 27.232C168.24 28 167.8 28.688 167.224 29.296C166.664 29.904 165.984 30.384 165.184 30.736C164.4 31.072 163.52 31.24 162.544 31.24ZM158.8 24.76C158.8 25.56 158.968 26.28 159.304 26.92C159.64 27.56 160.088 28.064 160.648 28.432C161.208 28.8 161.84 28.984 162.544 28.984C163.232 28.984 163.856 28.8 164.416 28.432C164.992 28.048 165.448 27.536 165.784 26.896C166.12 26.24 166.288 25.52 166.288 24.736C166.288 23.936 166.12 23.216 165.784 22.576C165.448 21.936 164.992 21.432 164.416 21.064C163.856 20.68 163.232 20.488 162.544 20.488C161.84 20.488 161.208 20.68 160.648 21.064C160.088 21.448 159.64 21.96 159.304 22.6C158.968 23.224 158.8 23.944 158.8 24.76ZM171.342 31V18.448H173.958V23.416H175.206L178.902 18.448H181.83L177.246 24.52L182.358 31H179.31L175.182 25.792H173.958V31H171.342Z" fill="black"/>
</svg>
