<svg width="290" height="46" viewBox="0 0 290 46" fill="none" xmlns="http://www.w3.org/2000/svg">
<path d="M37.8591 21.6513L44.7956 21.6357L24.3811 1.22118L24.4616 8.25384L37.8591 21.6513Z" fill="#F7D247" stroke="#F7D247"/>
<path d="M8.14093 24.0261L1.20439 24.0418L21.6189 44.4563L21.5384 37.4236L8.14093 24.0261Z" fill="#D33854" stroke="#D33854"/>
<path d="M8.14093 21.6513L1.20439 21.6357L21.6189 1.22118L21.5384 8.25384L8.14093 21.6513Z" fill="#DA7736" stroke="#DA7736"/>
<path d="M37.8591 24.0261L44.7956 24.0418L24.3811 44.4563L24.4616 37.4236L37.8591 24.0261Z" fill="#56A461" stroke="#56A461"/>
<path d="M65.136 31V13.96H78V31H76.32V15.448H66.816V31H65.136ZM87.2608 31.24C86.3648 31.24 85.5328 31.072 84.7648 30.736C84.0128 30.384 83.3568 29.912 82.7968 29.32C82.2528 28.712 81.8288 28.024 81.5248 27.256C81.2208 26.472 81.0688 25.648 81.0688 24.784C81.0688 23.888 81.2208 23.056 81.5248 22.288C81.8288 21.504 82.2608 20.816 82.8208 20.224C83.3808 19.616 84.0368 19.144 84.7888 18.808C85.5568 18.456 86.3888 18.28 87.2848 18.28C88.1808 18.28 89.0048 18.456 89.7568 18.808C90.5088 19.144 91.1648 19.616 91.7248 20.224C92.2848 20.816 92.7168 21.504 93.0208 22.288C93.3248 23.056 93.4768 23.888 93.4768 24.784C93.4768 25.648 93.3248 26.472 93.0208 27.256C92.7168 28.024 92.2848 28.712 91.7248 29.32C91.1808 29.912 90.5248 30.384 89.7568 30.736C89.0048 31.072 88.1728 31.24 87.2608 31.24ZM82.7248 24.808C82.7248 25.736 82.9248 26.584 83.3248 27.352C83.7408 28.104 84.2928 28.704 84.9808 29.152C85.6688 29.584 86.4288 29.8 87.2608 29.8C88.0928 29.8 88.8528 29.576 89.5408 29.128C90.2288 28.68 90.7808 28.072 91.1968 27.304C91.6128 26.52 91.8208 25.672 91.8208 24.76C91.8208 23.832 91.6128 22.984 91.1968 22.216C90.7808 21.448 90.2288 20.84 89.5408 20.392C88.8528 19.944 88.0928 19.72 87.2608 19.72C86.4288 19.72 85.6688 19.952 84.9808 20.416C84.3088 20.88 83.7648 21.496 83.3488 22.264C82.9328 23.016 82.7248 23.864 82.7248 24.808ZM94.8143 33.904V29.536H95.0303C95.3983 29.536 95.7343 29.424 96.0383 29.2C96.3423 28.976 96.6143 28.584 96.8543 28.024C97.0943 27.464 97.2863 26.696 97.4303 25.72C97.5743 24.728 97.6703 23.48 97.7183 21.976L97.8383 18.496H105.974V29.536H107.654V33.904H106.19V31H96.2543V33.904H94.8143ZM97.5023 29.536H104.342V19.96H99.3023L99.2303 22.12C99.1823 23.608 99.0783 24.856 98.9183 25.864C98.7743 26.856 98.5823 27.648 98.3423 28.24C98.1183 28.816 97.8383 29.248 97.5023 29.536ZM116.512 31.24C115.472 31.24 114.536 30.968 113.704 30.424C112.888 29.88 112.24 29.208 111.76 28.408V36.112H110.128V18.496H111.592V20.92C112.088 20.136 112.752 19.504 113.584 19.024C114.416 18.528 115.304 18.28 116.248 18.28C117.112 18.28 117.904 18.464 118.624 18.832C119.344 19.184 119.968 19.664 120.496 20.272C121.024 20.88 121.432 21.576 121.72 22.36C122.024 23.128 122.176 23.928 122.176 24.76C122.176 25.928 121.936 27.008 121.456 28C120.992 28.976 120.336 29.76 119.488 30.352C118.64 30.944 117.648 31.24 116.512 31.24ZM116.056 29.8C116.744 29.8 117.36 29.664 117.904 29.392C118.448 29.104 118.912 28.72 119.296 28.24C119.696 27.76 120 27.224 120.208 26.632C120.416 26.024 120.52 25.4 120.52 24.76C120.52 24.088 120.4 23.448 120.16 22.84C119.936 22.232 119.608 21.696 119.176 21.232C118.744 20.768 118.248 20.4 117.688 20.128C117.128 19.856 116.52 19.72 115.864 19.72C115.448 19.72 115.016 19.8 114.568 19.96C114.12 20.12 113.688 20.352 113.272 20.656C112.872 20.944 112.536 21.272 112.264 21.64C111.992 22.008 111.824 22.4 111.76 22.816V26.656C112.016 27.248 112.36 27.784 112.792 28.264C113.224 28.728 113.72 29.104 114.28 29.392C114.856 29.664 115.448 29.8 116.056 29.8ZM123.933 27.4C123.933 26.616 124.157 25.944 124.605 25.384C125.053 24.808 125.669 24.368 126.453 24.064C127.253 23.744 128.173 23.584 129.213 23.584C129.821 23.584 130.453 23.632 131.109 23.728C131.765 23.824 132.349 23.968 132.861 24.16V23.104C132.861 22.048 132.549 21.208 131.925 20.584C131.301 19.96 130.437 19.648 129.333 19.648C128.661 19.648 127.997 19.776 127.341 20.032C126.701 20.272 126.029 20.632 125.325 21.112L124.701 19.96C125.517 19.4 126.317 18.984 127.101 18.712C127.885 18.424 128.685 18.28 129.501 18.28C131.037 18.28 132.253 18.72 133.149 19.6C134.045 20.48 134.493 21.696 134.493 23.248V29.032C134.493 29.256 134.541 29.424 134.637 29.536C134.733 29.632 134.885 29.688 135.093 29.704V31C134.917 31.016 134.765 31.032 134.637 31.048C134.509 31.064 134.413 31.064 134.349 31.048C133.949 31.032 133.645 30.904 133.437 30.664C133.229 30.424 133.117 30.168 133.101 29.896L133.077 28.984C132.517 29.704 131.789 30.264 130.893 30.664C129.997 31.048 129.085 31.24 128.157 31.24C127.357 31.24 126.629 31.072 125.973 30.736C125.333 30.384 124.829 29.92 124.461 29.344C124.109 28.752 123.933 28.104 123.933 27.4ZM132.309 28.36C132.485 28.136 132.621 27.92 132.717 27.712C132.813 27.504 132.861 27.32 132.861 27.16V25.336C132.317 25.128 131.749 24.968 131.157 24.856C130.581 24.744 129.997 24.688 129.405 24.688C128.237 24.688 127.293 24.92 126.573 25.384C125.853 25.848 125.493 26.48 125.493 27.28C125.493 27.744 125.613 28.184 125.853 28.6C126.093 29 126.445 29.336 126.909 29.608C127.373 29.864 127.917 29.992 128.541 29.992C129.325 29.992 130.053 29.84 130.725 29.536C131.413 29.232 131.941 28.84 132.309 28.36ZM137.995 31V18.496H139.675L144.643 27.112L149.635 18.496H151.243V31H149.683V20.944L145.171 28.768H144.115L139.555 20.944V31H137.995ZM154.823 31V18.496H156.455V23.872H163.607V18.496H165.239V31H163.607V25.336H156.455V31H154.823ZM168.815 31V18.52H170.447V28.792L178.055 18.496H179.519V31H177.887V20.896L170.399 31H168.815ZM183.065 31V18.496H184.697V23.848H186.569L190.769 18.496H192.641L187.865 24.568L193.241 31H191.321L186.569 25.36H184.697V31H183.065ZM195.534 31V18.52H197.166V28.792L204.774 18.496H206.238V31H204.606V20.896L197.118 31H195.534ZM231.357 31V17.128L225.189 27.904H224.133L217.941 17.128V31H216.261V13.96H217.989L224.637 25.624L231.333 13.96H233.037V31H231.357ZM236.948 31V18.52H238.58V28.792L246.188 18.496H247.652V31H246.02V20.896L238.532 31H236.948ZM251.198 31V18.496H252.83V23.872H259.982V18.496H261.614V31H259.982V25.336H252.83V31H251.198ZM270.638 31.24C269.726 31.24 268.886 31.072 268.118 30.736C267.366 30.384 266.702 29.904 266.126 29.296C265.566 28.688 265.126 27.992 264.806 27.208C264.502 26.424 264.35 25.592 264.35 24.712C264.35 23.528 264.614 22.448 265.142 21.472C265.67 20.496 266.406 19.72 267.35 19.144C268.294 18.568 269.382 18.28 270.614 18.28C271.782 18.28 272.814 18.552 273.71 19.096C274.606 19.624 275.27 20.344 275.702 21.256L274.118 21.76C273.766 21.12 273.27 20.624 272.63 20.272C272.006 19.904 271.31 19.72 270.542 19.72C269.71 19.72 268.95 19.936 268.262 20.368C267.574 20.8 267.022 21.392 266.606 22.144C266.206 22.896 266.006 23.752 266.006 24.712C266.006 25.656 266.214 26.512 266.63 27.28C267.046 28.048 267.598 28.664 268.286 29.128C268.974 29.576 269.734 29.8 270.566 29.8C271.11 29.8 271.63 29.704 272.126 29.512C272.638 29.32 273.078 29.064 273.446 28.744C273.83 28.408 274.086 28.048 274.214 27.664L275.822 28.144C275.598 28.736 275.222 29.272 274.694 29.752C274.182 30.216 273.574 30.584 272.87 30.856C272.182 31.112 271.438 31.24 270.638 31.24ZM278.362 31V18.496H279.994V23.848H281.866L286.066 18.496H287.938L283.162 24.568L288.538 31H286.618L281.866 25.36H279.994V31H278.362Z" fill="black"/>
</svg>
