<svg width="40" height="40" fill="none" xmlns="http://www.w3.org/2000/svg"><mask id="a" style="mask-type:alpha" maskUnits="userSpaceOnUse" x="0" y="0" width="40" height="40"><path fill="#D9D9D9" d="M0 0h40v40H0z"/></mask><g mask="url(#a)"><path d="M7.792 35c-.75 0-1.403-.278-1.959-.833C5.278 33.611 5 32.958 5 32.208V7.792c0-.75.278-1.403.833-1.959C6.389 5.278 7.042 5 7.792 5h24.416c.75 0 1.403.278 1.959.833.555.556.833 1.209.833 1.959v24.416c0 .75-.278 1.403-.833 1.959-.556.555-1.209.833-1.959.833H7.792zm1.75-13.417l7-7 6.916 6.959 7-6.959 1.75 1.75V7.792H7.792v12.041l1.75 1.75zm-1.75 10.625h24.416V20.292l-1.75-1.792-7 6.958-6.916-6.916-7 7-1.75-1.75v8.416zm0 0V20.292v2.75-15.25 24.416z" fill="#1C1B1F"/></g></svg>