<svg width="50" height="50" viewBox="0 0 50 50" fill="none" xmlns="http://www.w3.org/2000/svg">
<mask id="mask0_431_345" style="mask-type:alpha" maskUnits="userSpaceOnUse" x="0" y="0" width="50" height="50">
<rect width="50" height="50" fill="#D9D9D9"/>
</mask>
<g mask="url(#mask0_431_345)">
<path d="M25.0001 45.8333C22.1529 45.8333 19.4619 45.2861 16.9272 44.1917C14.3924 43.0986 12.1792 41.6056 10.2876 39.7125C8.39453 37.8208 6.90147 35.6076 5.80842 33.0729C4.71397 30.5382 4.16675 27.8472 4.16675 25C4.16675 22.1181 4.71397 19.4188 5.80842 16.9021C6.90147 14.384 8.39453 12.1792 10.2876 10.2875C12.1792 8.39445 14.3924 6.9007 16.9272 5.80626C19.4619 4.7132 22.1529 4.16667 25.0001 4.16667C27.882 4.16667 30.5813 4.7132 33.098 5.80626C35.6161 6.9007 37.8209 8.39445 39.7126 10.2875C41.6056 12.1792 43.0987 14.384 44.1918 16.9021C45.2862 19.4188 45.8334 22.1181 45.8334 25C45.8334 27.8472 45.2862 30.5382 44.1918 33.0729C43.0987 35.6076 41.6056 37.8208 39.7126 39.7125C37.8209 41.6056 35.6161 43.0986 33.098 44.1917C30.5813 45.2861 27.882 45.8333 25.0001 45.8333ZM25.0001 41.5625C25.9029 40.3125 26.6841 39.0104 27.3438 37.6563C28.0036 36.3021 28.5417 34.8611 28.9584 33.3333H21.0418C21.4584 34.8611 21.9966 36.3021 22.6563 37.6563C23.3161 39.0104 24.0973 40.3125 25.0001 41.5625ZM19.5834 40.7292C18.9584 39.5833 18.4119 38.3938 17.9438 37.1604C17.4744 35.9285 17.0834 34.6528 16.7709 33.3333H10.6251C11.632 35.0695 12.8904 36.5799 14.4001 37.8646C15.9112 39.1493 17.639 40.1042 19.5834 40.7292ZM30.4168 40.7292C32.3612 40.1042 34.0883 39.1493 35.598 37.8646C37.1091 36.5799 38.3681 35.0695 39.3751 33.3333H33.2292C32.9167 34.6528 32.5265 35.9285 32.0584 37.1604C31.589 38.3938 31.0418 39.5833 30.4168 40.7292ZM8.85425 29.1667H15.9376C15.8334 28.4722 15.7549 27.7861 15.7022 27.1083C15.6508 26.432 15.6251 25.7292 15.6251 25C15.6251 24.2708 15.6508 23.5681 15.7022 22.8917C15.7549 22.2139 15.8334 21.5278 15.9376 20.8333H8.85425C8.68064 21.5278 8.55008 22.2139 8.46258 22.8917C8.37647 23.5681 8.33342 24.2708 8.33342 25C8.33342 25.7292 8.37647 26.432 8.46258 27.1083C8.55008 27.7861 8.68064 28.4722 8.85425 29.1667ZM20.1042 29.1667H29.8959C30.0001 28.4722 30.0786 27.7861 30.1313 27.1083C30.1827 26.432 30.2084 25.7292 30.2084 25C30.2084 24.2708 30.1827 23.5681 30.1313 22.8917C30.0786 22.2139 30.0001 21.5278 29.8959 20.8333H20.1042C20.0001 21.5278 19.9223 22.2139 19.8709 22.8917C19.8181 23.5681 19.7917 24.2708 19.7917 25C19.7917 25.7292 19.8181 26.432 19.8709 27.1083C19.9223 27.7861 20.0001 28.4722 20.1042 29.1667ZM34.0626 29.1667H41.1459C41.3195 28.4722 41.4501 27.7861 41.5376 27.1083C41.6237 26.432 41.6668 25.7292 41.6668 25C41.6668 24.2708 41.6237 23.5681 41.5376 22.8917C41.4501 22.2139 41.3195 21.5278 41.1459 20.8333H34.0626C34.1668 21.5278 34.2445 22.2139 34.2959 22.8917C34.3487 23.5681 34.3751 24.2708 34.3751 25C34.3751 25.7292 34.3487 26.432 34.2959 27.1083C34.2445 27.7861 34.1668 28.4722 34.0626 29.1667ZM33.2292 16.6667H39.3751C38.3681 14.9306 37.1091 13.4201 35.598 12.1354C34.0883 10.8507 32.3612 9.89584 30.4168 9.27084C31.0418 10.4167 31.589 11.6056 32.0584 12.8375C32.5265 14.0708 32.9167 15.3472 33.2292 16.6667ZM21.0418 16.6667H28.9584C28.5417 15.1389 28.0036 13.6979 27.3438 12.3438C26.6841 10.9896 25.9029 9.68751 25.0001 8.43751C24.0973 9.68751 23.3161 10.9896 22.6563 12.3438C21.9966 13.6979 21.4584 15.1389 21.0418 16.6667ZM10.6251 16.6667H16.7709C17.0834 15.3472 17.4744 14.0708 17.9438 12.8375C18.4119 11.6056 18.9584 10.4167 19.5834 9.27084C17.639 9.89584 15.9112 10.8507 14.4001 12.1354C12.8904 13.4201 11.632 14.9306 10.6251 16.6667Z" fill="#1C1B1F"/>
</g>
</svg>
