<svg width="29" height="30" fill="none" xmlns="http://www.w3.org/2000/svg"><path d="M25.24 2.921c-.744-.685-3.756-2.87-10.47-2.9 0 0-7.915-.474-11.77 3.064C.856 5.23.1 8.375.018 12.272c-.082 3.896-.181 11.196 6.855 13.176h.006l-.006 3.023s-.047 1.224.761 1.47c.973.305 1.547-.627 2.479-1.628.51-.551 1.212-1.36 1.745-1.975 4.816.404 8.513-.521 8.935-.656.973-.316 6.474-1.02 7.364-8.32.926-7.533-.445-12.29-2.917-14.44zm.814 13.891c-.756 6.093-5.214 6.48-6.034 6.743-.352.112-3.604.92-7.687.657 0 0-3.046 3.673-3.996 4.628-.31.31-.65.281-.644-.334 0-.404.023-5.02.023-5.02-.005 0-.005 0 0 0-5.964-1.653-5.612-7.87-5.548-11.12.065-3.252.68-5.918 2.496-7.71 3.263-2.96 9.983-2.52 9.983-2.52 5.677.024 8.396 1.734 9.028 2.308 2.092 1.793 3.158 6.082 2.379 12.368zm-8.143-4.734c.023.504-.733.54-.756.036-.065-1.29-.668-1.916-1.91-1.987-.504-.029-.457-.785.04-.755 1.635.087 2.543 1.025 2.625 2.706zm1.189.662c.058-2.484-1.494-4.429-4.441-4.646-.498-.035-.445-.79.053-.755 3.398.246 5.208 2.583 5.143 5.419-.005.504-.767.48-.755-.018zm2.753.785c.006.504-.755.51-.755.006-.036-4.775-3.217-7.376-7.078-7.405-.498-.006-.498-.756 0-.756 4.318.03 7.792 3.012 7.833 8.155zm-.662 5.748v.011c-.632 1.114-1.816 2.344-3.034 1.951l-.012-.017c-1.236-.346-4.148-1.846-5.988-3.31a15.316 15.316 0 01-2.484-2.484 19.012 19.012 0 01-1.804-2.73C6.62 10.438 6.346 9.43 6.346 9.43c-.393-1.218.831-2.402 1.95-3.035h.012c.54-.28 1.055-.187 1.4.229 0 0 .727.867 1.037 1.295.293.398.686 1.037.89 1.394.358.639.136 1.289-.216 1.558l-.703.563c-.357.287-.31.82-.31.82s1.042 3.943 4.938 4.939c0 0 .534.047.82-.31l.563-.704c.27-.351.92-.574 1.558-.216.862.486 1.957 1.242 2.684 1.927.41.334.503.844.222 1.383z" fill="#4C4C4C"/></svg>