<svg width="40" height="23" fill="none" xmlns="http://www.w3.org/2000/svg"><path d="M39.088 1.56c.275-.899 0-1.56-1.321-1.56h-4.374c-1.114 0-1.626.568-1.901 1.2 0 0-2.228 5.254-5.376 8.661-1.017.985-1.485 1.301-2.042 1.301-.275 0-.698-.316-.698-1.215V1.56c0-1.078-.312-1.56-1.233-1.56h-6.876c-.698 0-1.114.503-1.114.97 0 1.02 1.574 1.258 1.738 4.133v6.239c0 1.365-.253 1.617-.81 1.617-1.485 0-5.094-5.276-7.232-11.313C7.419.474 6.995 0 5.874 0H1.5C.252 0 0 .568 0 1.2c0 1.122 1.485 6.692 6.913 14.052C10.53 20.276 15.623 23 20.257 23c2.785 0 3.126-.604 3.126-1.646 0-4.801-.252-5.254 1.144-5.254.646 0 1.76.316 4.359 2.738 2.97 2.875 3.46 4.162 5.123 4.162h4.374c1.247 0 1.879-.604 1.515-1.797-.832-2.508-6.453-7.669-6.706-8.014-.646-.805-.46-1.164 0-1.883.008-.007 5.347-7.281 5.896-9.746z" fill="#4C4C4C"/></svg>